<?xml version="1.0" encoding="UTF-8"?>
<!DOCTYPE svg PUBLIC "-//W3C//DTD SVG 1.1//EN" "http://www.w3.org/Graphics/SVG/1.1/DTD/svg11.dtd">
<!-- Creator: CorelDRAW 2020 (64-Bit) -->
<svg xmlns="http://www.w3.org/2000/svg" xml:space="preserve" width="47.6249mm" height="47.7033mm" version="1.1" style="shape-rendering:geometricPrecision; text-rendering:geometricPrecision; image-rendering:optimizeQuality; fill-rule:evenodd; clip-rule:evenodd"
viewBox="0 0 620.33 621.35"
 xmlns:xlink="http://www.w3.org/1999/xlink"
 xmlns:xodm="http://www.corel.com/coreldraw/odm/2003">
 <defs>
  <style type="text/css">
   <![CDATA[
    .fil0 {fill:#C40027;fill-rule:nonzero}
   ]]>
  </style>
 </defs>
 <g id="Layer_x0020_1">
  <metadata id="CorelCorpID_0Corel-Layer"/>
  <path class="fil0" d="M310.42 0c-171.44,0 -310.42,138.99 -310.42,310.42 0,131.58 81.76,243.99 197.24,289.21 -2.81,-24.53 -5.11,-62.34 1.02,-89.17 5.62,-24.27 36.28,-154.32 36.28,-154.32 0,0 -9.2,-18.65 -9.2,-45.99 0,-43.18 25.04,-75.37 56.21,-75.37 26.57,0 39.35,19.93 39.35,43.69 0,26.57 -16.86,66.43 -25.81,103.48 -7.41,30.91 15.59,56.21 45.99,56.21 55.19,0 97.6,-58.25 97.6,-142.05 0,-74.35 -53.39,-126.21 -129.79,-126.21 -88.4,0 -140.26,66.17 -140.26,134.64 0,26.57 10.22,55.19 22.99,70.77 2.56,3.06 2.81,5.88 2.04,8.94 -2.3,9.71 -7.67,30.92 -8.69,35.26 -1.28,5.62 -4.6,6.9 -10.47,4.09 -38.84,-18.14 -63.11,-74.61 -63.11,-120.34 0,-97.85 71.03,-187.79 205.16,-187.79 107.56,0 191.36,76.65 191.36,179.35 0,107.05 -67.45,193.15 -160.96,193.15 -31.43,0 -61.06,-16.35 -71.03,-35.77 0,0 -15.58,59.28 -19.41,73.84 -6.9,27.08 -25.81,60.81 -38.58,81.5 29.13,8.94 59.78,13.8 91.97,13.8 171.44,0 310.42,-138.99 310.42,-310.42 0.51,-171.95 -138.47,-310.93 -309.9,-310.93z"/>
 </g>
</svg>
