<?xml version="1.0" encoding="UTF-8"?>
<!DOCTYPE svg PUBLIC "-//W3C//DTD SVG 1.1//EN" "http://www.w3.org/Graphics/SVG/1.1/DTD/svg11.dtd">
<!-- Creator: CorelDRAW 2020 (64-Bit) -->
<svg xmlns="http://www.w3.org/2000/svg" xml:space="preserve" width="47.625mm" height="47.625mm" version="1.1" style="shape-rendering:geometricPrecision; text-rendering:geometricPrecision; image-rendering:optimizeQuality; fill-rule:evenodd; clip-rule:evenodd"
viewBox="0 0 2051.95 2051.95"
 xmlns:xlink="http://www.w3.org/1999/xlink"
 xmlns:xodm="http://www.corel.com/coreldraw/odm/2003">
 <defs>
  <style type="text/css">
   <![CDATA[
    .fil1 {fill:#FEFEFE}
    .fil0 {fill:url(#id0)}
   ]]>
  </style>
  <linearGradient id="id0" gradientUnits="userSpaceOnUse" x1="1025.98" y1="1902.88" x2="1025.98" y2="-149.08">
   <stop offset="0" style="stop-opacity:1; stop-color:#78CD51"/>
   <stop offset="1" style="stop-opacity:1; stop-color:#A0FC84"/>
  </linearGradient>
 </defs>
 <g id="Layer_x0020_1">
  <metadata id="CorelCorpID_0Corel-Layer"/>
  <path class="fil0" d="M2051.95 1025.98c0,566.63 -459.34,1025.98 -1025.98,1025.98 -566.63,0 -1025.98,-459.35 -1025.98,-1025.98 0,-566.63 459.35,-1025.98 1025.98,-1025.98 566.63,0 1025.98,459.35 1025.98,1025.98z"/>
  <path class="fil1" d="M1355.84 1141.11c-16.26,-8.15 -96.21,-47.48 -111.12,-52.89 -14.91,-5.43 -25.75,-8.15 -36.6,8.13 -10.82,16.26 -42,52.9 -51.48,63.75 -9.48,10.84 -18.97,12.2 -35.23,4.05 -16.26,-8.13 -68.66,-25.29 -130.78,-80.68 -48.35,-43.11 -80.98,-96.35 -90.47,-112.63 -9.49,-16.28 -1.02,-25.08 7.11,-33.18 7.32,-7.28 16.28,-18.98 24.41,-28.48 8.13,-9.48 10.84,-16.28 16.25,-27.12 5.44,-10.85 2.72,-20.35 -1.35,-28.48 -4.06,-8.15 -36.58,-88.16 -50.13,-120.71 -13.21,-31.69 -26.6,-27.41 -36.6,-27.91 -9.47,-0.47 -20.32,-0.56 -31.16,-0.56 -10.84,0 -28.45,4.06 -43.37,20.34 -14.91,16.28 -56.92,55.6 -56.92,135.63 0,80.01 58.27,157.31 66.41,168.17 8.13,10.85 114.66,175.07 277.8,245.49 38.8,16.75 69.1,26.75 92.72,34.24 38.96,12.37 74.42,10.62 102.43,6.45 31.23,-4.67 96.21,-39.34 109.77,-77.32 13.56,-37.97 13.56,-70.51 9.49,-77.29 -4.08,-6.78 -14.91,-10.85 -31.18,-18.99zm-296.73 405.01l-0.23 0c-97.06,-0.03 -192.26,-26.1 -275.33,-75.38l-19.76 -11.72 -204.74 53.68 54.66 -199.56 -12.87 -20.46c-54.14,-86.11 -82.75,-185.62 -82.7,-287.81 0.12,-298.17 242.8,-540.75 541.18,-540.75 144.49,0.06 280.31,56.39 382.45,158.61 102.13,102.22 158.34,238.09 158.31,382.59 -0.12,298.2 -242.81,540.79 -540.97,540.79zm460.4 -1001.05c-122.87,-123 -286.3,-190.76 -460.4,-190.83 -358.76,0 -650.73,291.86 -650.86,650.62 -0.05,114.67 29.91,226.6 86.88,325.27l-92.34 337.16 345.03 -90.47c95.06,51.83 202.09,79.14 311.02,79.19l0.27 0c358.7,0 650.7,-291.89 650.85,-650.64 0.08,-173.85 -67.56,-337.34 -190.45,-460.3z"/>
 </g>
</svg>
